<?xml version="1.0" encoding="utf-8"?>
<!-- Generator: Adobe Illustrator 24.3.0, SVG Export Plug-In . SVG Version: 6.00 Build 0)  -->
<svg version="1.1" id="Layer_1" xmlns="http://www.w3.org/2000/svg" xmlns:xlink="http://www.w3.org/1999/xlink" x="0px" y="0px"
	 viewBox="0 0 1080 1080" style="enable-background:new 0 0 1080 1080;" xml:space="preserve">
<path d="M379.42,486.54c14.01,22.55,36.26,27.97,58.64,31.25c23.17,3.4,46.7,5.52,70.11,5.95c31.46,0.57,62.97-0.5,94.42-1.92
	c14.05-0.64,27.99-3.82,41.98-5.92c2.15-0.32,3.91-0.87,3.91-3.99c-0.08-35.5,0-71,0.04-106.5c0-0.32-0.14-0.63-0.31-1.38
	c-17.08,0-34.25,0-51.91,0c0,25.9,0,51.66,0,77.67c-1.19,0.2-1.97,0.45-2.74,0.45c-34.16-0.1-68.33,0.19-102.49-0.5
	c-23.14-0.47-46.3-1.95-68.82-8.1c-13.12-3.58-25.72-8.31-35.15-18.81c-11.35-12.63-11.6-27.51-0.25-39.98
	c4.22-4.64,9.17-8.76,14.33-12.34c3.33-2.31,4.53-4.63,4.36-8.52c-0.29-6.45-0.08-12.92-0.08-19.63c36.05,0,71.64,0,107.78,0
	c0,27,0,53.9,0,81.24c18.76,0,36.98,0,55.85,0c0-26.22,0-52.61,0-79.27c36.03,0,71.42,0,107.32,0c0,2.05,0,3.84,0,5.62
	c0,26.84,0.06,53.67-0.07,80.51c-0.02,3.25,0.73,4.99,3.95,6.35c12.54,5.32,19.7,14.8,21.05,28.54
	c1.48,15.05-4.64,26.13-17.25,33.99c-15.5,9.67-32.94,13.18-50.62,15.7c-39.77,5.66-79.81,4.17-119.78,4.11
	c-28.35-0.04-56.63-1.46-84.49-7.2c-12.24-2.52-24.3-5.84-35.06-12.56c-2.81-1.75-5.54-3.74-7.93-6.02
	c-4.45-4.25-7.36-9.13-6.89-15.83C379.81,502.24,379.42,494.98,379.42,486.54z M486.59,404.12c-18.56,0-36.73,0-54.78,0
	c0,13.49,0.14,26.61-0.09,39.72c-0.07,3.77,1.56,4.85,4.83,5.3c7.57,1.06,15.08,2.65,22.67,3.46c9.01,0.95,18.09,1.31,27.36,1.93
	C486.59,437.2,486.59,420.92,486.59,404.12z"/>
<path d="M403.57,705.73c0-51.47,0-102.45,0-153.22c8.37,2.28,16.71,4.56,25.83,7.05c0,39.1,0,79.16,0,119.59
	c18.94,0,37.33,0,56.18,0c0-32.69,0-65.27,0-98.54c2.39,0,4.33,0.01,6.27,0c37.33-0.15,74.67,0.04,112-0.58
	c23.46-0.39,46.13-6.22,68.48-12.95c10.82-3.26,20.35-8.91,28.06-18.15c0,9.55,0.13,19.1-0.13,28.65c-0.04,1.55-1.55,3.23-2.72,4.56
	c-7.52,8.53-17.6,12.4-28.28,14.81c-24.19,5.46-48.44,10.72-73.83,10.42c0,24,0,47.71,0,71.66c17.15,0,34.25,0,51.9,0
	c0-17.47,0-34.87,0-51.67c10.31-2.25,19.96-4.36,29.74-6.49c0,27.88,0,56.14,0,84.77c-36.01,0-71.92,0-108.39,0
	c0-32.31,0-64.7,0-97.41c-18.82,0-37.07,0-55.89,0c0,32.39,0,64.79,0,97.51C476.17,705.73,440.1,705.73,403.57,705.73z"/>
</svg>
